<svg width="48" height="48" viewBox="0 0 48 48" fill="none" xmlns="http://www.w3.org/2000/svg">
<path fill-rule="evenodd" clip-rule="evenodd" d="M23.8328 40C31.6976 40 38.237 34.3256 39.5802 26.8475H47.6657C46.2575 38.7602 36.1242 48 23.8328 48C11.5415 48 1.40819 38.7602 0 26.8475L5.52776 26.8475L8.08547 26.8475L22.6125 26.8475V32.5424H10.3016C13.1369 37.0241 18.1373 40 23.8328 40ZM23.8328 8C16.2559 8 9.90912 13.2667 8.25363 20.339H0.110305C1.87311 8.8218 11.8228 0 23.8328 0C35.8429 0 45.7926 8.8218 47.5554 20.339H39.4121C37.7566 13.2667 31.4098 8 23.8328 8Z" fill="#545454"/>
</svg>
